<svg xmlns="http://www.w3.org/2000/svg" version="1.1" xmlns:xlink="http://www.w3.org/1999/xlink" xmlns:svgjs="http://svgjs.dev/svgjs" width="128" height="128" viewBox="0 0 128 128"><g transform="matrix(0.8046875,0,0,0.8046875,12.221578124999994,12.221578124999994)"><svg viewBox="0 0 96 96" data-background-color="#1f2937" preserveAspectRatio="xMidYMid meet" height="128" width="128" xmlns="http://www.w3.org/2000/svg" xmlns:xlink="http://www.w3.org/1999/xlink"><g id="tight-bounds" transform="matrix(1,0,0,1,0.25950000000000273,0.25950000000000273)"><svg viewBox="0 0 95.481 95.481" height="95.481" width="95.481"><g><svg viewBox="0 0 95.481 95.481" height="95.481" width="95.481"><g><svg viewBox="0 0 95.481 95.481" height="95.481" width="95.481"><g id="textblocktransform"><svg viewBox="0 0 95.481 95.481" height="95.481" width="95.481" id="textblock"><g><svg viewBox="0 0 95.481 95.481" height="95.481" width="95.481"><g><svg viewBox="0 0 95.481 95.481" height="95.481" width="95.481"><g><svg xmlns="http://www.w3.org/2000/svg" xmlns:xlink="http://www.w3.org/1999/xlink" version="1.1" x="0" y="0" viewBox="0.5 0.5 71 71" enable-background="new 0 0 72 72" xml:space="preserve" height="95.481" width="95.481" class="icon-icon-0" data-fill-palette-color="accent" id="icon-0"><g fill="#2563eb" data-fill-palette-color="accent"><g fill="#2563eb" data-fill-palette-color="accent"><g fill="#2563eb" data-fill-palette-color="accent"><path d="M48.4 38.1C47.7 38.1 47 37.8 46.5 37.2 45.6 36.2 45.8 34.6 46.7 33.7L49.8 30.6C50.1 30.3 50.1 29.9 49.8 29.6L46.7 26.5C45.8 25.6 45.6 24.1 46.4 23.1 47.4 21.9 49.1 21.9 50.1 22.9L55.6 28.4C56.1 28.9 56.3 29.5 56.3 30.2S56 31.5 55.6 32L50.1 37.5C49.6 37.9 49 38.1 48.4 38.1" fill="#2563eb" data-fill-palette-color="accent"></path></g><g fill="#2563eb" data-fill-palette-color="accent"><path d="M23.6 38.1C23 38.1 22.3 37.9 21.8 37.4L16.4 32C15.9 31.5 15.7 30.9 15.7 30.2S16 28.9 16.4 28.4L21.8 23C22.7 22.1 24.2 21.9 25.2 22.7 26.4 23.7 26.4 25.4 25.4 26.4L22.2 29.6C21.9 29.9 21.9 30.3 22.2 30.6L25.3 33.7C26.2 34.6 26.4 36.2 25.5 37.2 25 37.8 24.3 38.1 23.6 38.1" fill="#2563eb" data-fill-palette-color="accent"></path></g></g><g fill="#2563eb" data-fill-palette-color="accent"><path d="M32.7 41.9C32.4 41.9 32.1 41.9 31.9 41.8 30.6 41.3 29.9 39.9 30.4 38.6L37 20.2C37.5 18.9 38.9 18.2 40.2 18.7S42.2 20.6 41.7 21.9L35.1 40.3C34.7 41.2 33.7 41.9 32.7 41.9" fill="#2563eb" data-fill-palette-color="accent"></path></g><g fill="#2563eb" data-fill-palette-color="accent"><path d="M69.8 0.5H2.2C1.3 0.5 0.5 1.3 0.5 2.2V69.8C0.5 70.7 1.3 71.5 2.2 71.5H69.8C70.7 71.5 71.5 70.7 71.5 69.8V2.2C71.5 1.3 70.7 0.5 69.8 0.5M25 4.5C26.2 4.5 27.1 5.4 27.1 6.6S26.2 8.7 25 8.7 22.9 7.8 22.9 6.6 23.8 4.5 25 4.5M16.1 4.5C17.3 4.5 18.2 5.4 18.2 6.6S17.3 8.7 16.1 8.7C15 8.7 14 7.8 14 6.6S15 4.5 16.1 4.5M7.3 4.5C8.5 4.5 9.4 5.4 9.4 6.6S8.5 8.7 7.3 8.7 5.2 7.8 5.2 6.6 6.1 4.5 7.3 4.5M5.5 64.8V16.5C5.5 15.6 6.3 14.8 7.2 14.8H64.8C65.7 14.8 66.5 15.6 66.5 16.5V46C66.4 46 66.4 45.9 66.3 45.9 65.9 45.8 65.7 45.4 65.7 45.1V41.6C65.7 41.1 65.3 40.7 64.8 40.7H59C58.5 40.7 58.1 41.1 58.1 41.6V45.1C58.1 45.5 57.8 45.8 57.5 45.9 56.7 46.1 56 46.5 55.3 46.8 55 47 54.5 46.9 54.3 46.7L52 44.5C51.4 43.9 50.9 43.9 50.5 44.3L46.4 48.4C46 48.8 46 49.3 46.4 49.7L48.8 52.1C49.1 52.4 49.1 52.8 49 53.1 48.6 53.8 48.3 54.6 48.1 55.3 48 55.7 47.6 56 47.2 56H43.7C43.2 56 42.8 56.4 42.8 56.9V62.7C42.8 63.2 43.2 63.6 43.7 63.6H47.2C47.6 63.6 47.9 63.9 48 64.2 48.1 64.6 48.3 65.1 48.5 65.5 48.7 66 48.3 66.6 47.8 66.6H7.2C6.3 66.5 5.5 65.7 5.5 64.8M64.8 66.5H56.4C56.1 66.5 55.8 66.4 55.6 66.2 53.7 64.3 52.6 61.5 53 58.5 53.5 54.6 56.7 51.4 60.6 50.8 62.8 50.5 64.9 50.9 66.6 52V64.8C66.5 65.7 65.7 66.5 64.8 66.5" fill="#2563eb" data-fill-palette-color="accent"></path></g></g></svg></g></svg></g></svg></g></svg></g></svg></g></svg></g><defs></defs></svg><rect width="95.481" height="95.481" fill="none" stroke="none" visibility="hidden"></rect></g></svg></g></svg>