<svg xmlns="http://www.w3.org/2000/svg" version="1.1" xmlns:xlink="http://www.w3.org/1999/xlink" xmlns:svgjs="http://svgjs.dev/svgjs" width="2000" height="323" viewBox="0 0 2000 323"><g transform="matrix(1,0,0,1,-0.09656815807795738,-1.5708942281789007)"><svg viewBox="0 0 359 58" data-background-color="#1f2937" preserveAspectRatio="xMidYMid meet" height="323" width="2000" xmlns="http://www.w3.org/2000/svg" xmlns:xlink="http://www.w3.org/1999/xlink"><g id="tight-bounds" transform="matrix(1,0,0,1,0.017333984375,0.2820800781250057)"><svg viewBox="0 0 358.96533203125 57.435839843749996" height="57.435839843749996" width="358.96533203125"><g><svg viewBox="0 0 358.96533203125 57.435839843749996" height="57.435839843749996" width="358.96533203125"><g><svg viewBox="0 0 358.96533203125 57.435839843749996" height="57.435839843749996" width="358.96533203125"><g id="textblocktransform"><svg viewBox="0 0 358.96533203125 57.435839843749996" height="57.435839843749996" width="358.96533203125" id="textblock"><g><svg viewBox="0 0 358.96533203125 57.435839843749996" height="57.435839843749996" width="358.96533203125"><g><svg><g></g><g></g></svg></g><g><svg><g><svg></svg></g><g></g></svg></g><g id="text-0"><svg viewBox="0 0 358.96533203125 57.435839843749996" height="57.435839843749996" width="358.96533203125"><g transform="matrix(1,0,0,1,0,0)"><svg width="287.96923828125" viewBox="3 -35.01 177.96 35.5" height="57.435839843749996" data-palette-color="#ffffff"><path d="M19.7-6.86L19.7-6.86Q19.7-5.35 19.13-4 18.55-2.66 17.55-1.66 16.55-0.66 15.21-0.09 13.87 0.49 12.35 0.49L12.35 0.49 10.35 0.49Q8.84 0.49 7.5-0.09 6.15-0.66 5.15-1.66 4.15-2.66 3.58-4 3-5.35 3-6.86L3-6.86 3-18.14Q3-19.65 3.58-21 4.15-22.34 5.15-23.34 6.15-24.34 7.5-24.91 8.84-25.49 10.35-25.49L10.35-25.49 12.35-25.49Q13.87-25.49 15.21-24.91 16.55-24.34 17.55-23.34 18.55-22.34 19.13-21 19.7-19.65 19.7-18.14L19.7-18.14 19.7-17.14 16.7-16.65 16.7-18.31Q16.7-19.21 16.36-20.01 16.02-20.8 15.43-21.39 14.84-21.97 14.05-22.31 13.26-22.66 12.35-22.66L12.35-22.66 10.35-22.66Q9.45-22.66 8.65-22.31 7.86-21.97 7.28-21.39 6.69-20.8 6.35-20.01 6.01-19.21 6.01-18.31L6.01-18.31 6.01-6.69Q6.01-5.79 6.35-4.99 6.69-4.2 7.28-3.61 7.86-3.03 8.65-2.69 9.45-2.34 10.35-2.34L10.35-2.34 12.35-2.34Q13.26-2.34 14.05-2.69 14.84-3.03 15.43-3.61 16.02-4.2 16.36-4.99 16.7-5.79 16.7-6.69L16.7-6.69 16.7-8.35 19.7-7.86 19.7-6.86ZM42.4-6.86L42.4-6.86Q42.4-5.35 41.83-4 41.26-2.66 40.26-1.66 39.26-0.66 37.91-0.09 36.57 0.49 35.06 0.49L35.06 0.49 33.05 0.49Q31.54 0.49 30.2-0.09 28.85-0.66 27.85-1.66 26.85-2.66 26.28-4 25.71-5.35 25.71-6.86L25.71-6.86 25.71-18.14Q25.71-19.65 26.28-21 26.85-22.34 27.85-23.34 28.85-24.34 30.2-24.91 31.54-25.49 33.05-25.49L33.05-25.49 35.06-25.49Q36.57-25.49 37.91-24.91 39.26-24.34 40.26-23.34 41.26-22.34 41.83-21 42.4-19.65 42.4-18.14L42.4-18.14 42.4-6.86ZM39.4-6.69L39.4-18.31Q39.4-19.21 39.06-20.01 38.72-20.8 38.13-21.39 37.55-21.97 36.75-22.31 35.96-22.66 35.06-22.66L35.06-22.66 33.05-22.66Q32.15-22.66 31.36-22.31 30.56-21.97 29.98-21.39 29.39-20.8 29.05-20.01 28.71-19.21 28.71-18.31L28.71-18.31 28.71-6.69Q28.71-5.79 29.05-4.99 29.39-4.2 29.98-3.61 30.56-3.03 31.36-2.69 32.15-2.34 33.05-2.34L33.05-2.34 35.06-2.34Q35.96-2.34 36.75-2.69 37.55-3.03 38.13-3.61 38.72-4.2 39.06-4.99 39.4-5.79 39.4-6.69L39.4-6.69ZM65.11 0L64.11 0 62.45-2.54Q61.42-1.15 59.88-0.33 58.34 0.49 56.51 0.49L56.51 0.49 55.76 0.49Q54.24 0.49 52.9-0.09 51.56-0.66 50.56-1.66 49.56-2.66 48.98-4 48.41-5.35 48.41-6.86L48.41-6.86 48.41-18.14Q48.41-19.65 48.98-21 49.56-22.34 50.56-23.34 51.56-24.34 52.9-24.91 54.24-25.49 55.76-25.49L55.76-25.49 56.51-25.49Q58.2-25.49 59.64-24.8 61.08-24.12 62.1-22.9L62.1-22.9 62.1-35.01 65.11-35.01 65.11 0ZM62.1-6.69L62.1-18.31Q62.1-19.21 61.76-20.01 61.42-20.8 60.83-21.39 60.25-21.97 59.46-22.31 58.66-22.66 57.76-22.66L57.76-22.66 55.76-22.66Q54.85-22.66 54.06-22.31 53.27-21.97 52.68-21.39 52.09-20.8 51.75-20.01 51.41-19.21 51.41-18.31L51.41-18.31 51.41-6.69Q51.41-5.79 51.75-4.99 52.09-4.2 52.68-3.61 53.27-3.03 54.06-2.69 54.85-2.34 55.76-2.34L55.76-2.34 57.76-2.34Q58.66-2.34 59.46-2.69 60.25-3.03 60.83-3.61 61.42-4.2 61.76-4.99 62.1-5.79 62.1-6.69L62.1-6.69ZM87.81-6.86L87.81-6.86Q87.81-5.35 87.24-4 86.66-2.66 85.66-1.66 84.66-0.66 83.32-0.09 81.97 0.49 80.46 0.49L80.46 0.49 78.46 0.49Q76.95 0.49 75.6-0.09 74.26-0.66 73.26-1.66 72.26-2.66 71.68-4 71.11-5.35 71.11-6.86L71.11-6.86 71.11-18.14Q71.11-19.65 71.68-21 72.26-22.34 73.26-23.34 74.26-24.34 75.6-24.91 76.95-25.49 78.46-25.49L78.46-25.49 80.46-25.49Q81.97-25.49 83.32-24.91 84.66-24.34 85.66-23.34 86.66-22.34 87.24-21 87.81-19.65 87.81-18.14L87.81-18.14 87.81-12.26 74.11-12.26 74.11-6.69Q74.11-5.79 74.46-4.99 74.8-4.2 75.38-3.61 75.97-3.03 76.76-2.69 77.56-2.34 78.46-2.34L78.46-2.34 80.46-2.34Q81.36-2.34 82.16-2.69 82.95-3.03 83.54-3.61 84.12-4.2 84.47-4.99 84.81-5.79 84.81-6.69L84.81-6.69 84.81-8.35 87.81-7.86 87.81-6.86ZM84.81-14.6L84.81-18.31Q84.81-19.21 84.47-20.01 84.12-20.8 83.54-21.39 82.95-21.97 82.16-22.31 81.36-22.66 80.46-22.66L80.46-22.66 78.46-22.66Q77.56-22.66 76.76-22.31 75.97-21.97 75.38-21.39 74.8-20.8 74.46-20.01 74.11-19.21 74.11-18.31L74.11-18.31 74.11-14.6 84.81-14.6ZM123.21-25L114.86 0 113.22 0 107.36-18.85 107.27-20.14 107.17-18.85 101.31 0 99.65 0 91.3-25 94.35-25 100.31-6.1 100.41-4.81 100.5-6.1 106.36-25 108.17-25 114-6.1 114.1-4.81 114.2-6.1 120.16-25 123.21-25ZM143.42 0L142.42 0 140.76-2.49Q139.73-1.15 138.2-0.33 136.66 0.49 134.83 0.49L134.83 0.49 134.07 0.49Q132.56 0.49 131.21-0.09 129.87-0.66 128.87-1.66 127.87-2.66 127.29-4 126.72-5.35 126.72-6.86L126.72-6.86 126.72-7.1Q126.72-8.62 127.29-9.96 127.87-11.3 128.87-12.3 129.87-13.31 131.21-13.88 132.56-14.45 134.07-14.45L134.07-14.45 140.42-14.45 140.42-18.31Q140.42-19.21 140.08-20.01 139.73-20.8 139.15-21.39 138.56-21.97 137.77-22.31 136.97-22.66 136.07-22.66L136.07-22.66 134.31-22.66Q133.41-22.66 132.62-22.31 131.82-21.97 131.24-21.39 130.65-20.8 130.31-20.01 129.97-19.21 129.97-18.31L129.97-18.31 129.97-17.41 126.97-17.9 126.97-18.14Q126.97-19.65 127.54-21 128.11-22.34 129.11-23.34 130.11-24.34 131.46-24.91 132.8-25.49 134.31-25.49L134.31-25.49 136.07-25.49Q137.59-25.49 138.93-24.91 140.27-24.34 141.27-23.34 142.27-22.34 142.85-21 143.42-19.65 143.42-18.14L143.42-18.14 143.42 0ZM140.42-6.69L140.42-12.11 134.07-12.11Q133.17-12.11 132.37-11.77 131.58-11.43 130.99-10.83 130.41-10.23 130.07-9.44 129.72-8.64 129.72-7.74L129.72-7.74 129.72-6.69Q129.72-5.79 130.07-4.99 130.41-4.2 130.99-3.61 131.58-3.03 132.37-2.69 133.17-2.34 134.07-2.34L134.07-2.34 136.07-2.34Q136.97-2.34 137.77-2.69 138.56-3.03 139.15-3.61 139.73-4.2 140.08-4.99 140.42-5.79 140.42-6.69L140.42-6.69ZM159.78-22.14L156.77-22.14Q155.87-22.14 155.08-21.8 154.28-21.46 153.7-20.87 153.11-20.29 152.77-19.49 152.43-18.7 152.43-17.8L152.43-17.8 152.43 0 149.42 0 149.42-25 150.42-25 152.06-22.46Q153.09-23.85 154.64-24.67 156.19-25.49 158.02-25.49L158.02-25.49 159.78-25.49 159.78-22.14ZM180.96-6.35L180.96-6.35Q180.96-4.83 180.35-3.58 179.74-2.32 178.69-1.42 177.64-0.51 176.26-0.01 174.88 0.49 173.37 0.49L173.37 0.49 171.37 0.49Q169.86 0.49 168.48-0.09 167.1-0.66 166.06-1.66 165.02-2.66 164.4-4 163.78-5.35 163.78-6.86L163.78-6.86 163.78-7.86 166.78-8.35 166.78-6.69Q166.78-5.79 167.16-4.99 167.54-4.2 168.17-3.61 168.81-3.03 169.64-2.69 170.47-2.34 171.37-2.34L171.37-2.34 173.37-2.34Q174.27-2.34 175.1-2.61 175.93-2.88 176.58-3.38 177.23-3.88 177.61-4.59 177.99-5.3 177.99-6.2L177.99-6.2Q177.99-7.54 177.4-8.4 176.81-9.25 175.85-9.83 174.88-10.4 173.65-10.78 172.42-11.16 171.13-11.54 169.83-11.91 168.6-12.4 167.37-12.89 166.4-13.68 165.44-14.48 164.85-15.67 164.26-16.87 164.26-18.65L164.26-18.65Q164.26-20.17 164.85-21.42 165.44-22.68 166.44-23.58 167.44-24.49 168.77-24.99 170.1-25.49 171.61-25.49L171.61-25.49 173.37-25.49Q174.88-25.49 176.23-24.91 177.57-24.34 178.57-23.34 179.57-22.34 180.15-21 180.72-19.65 180.72-18.14L180.72-18.14 180.72-18.04 177.72-17.55 177.72-18.31Q177.72-19.21 177.38-20.01 177.03-20.8 176.45-21.39 175.86-21.97 175.07-22.31 174.27-22.66 173.37-22.66L173.37-22.66 171.61-22.66Q170.71-22.66 169.92-22.39 169.12-22.12 168.54-21.62 167.95-21.12 167.61-20.41 167.27-19.7 167.27-18.8L167.27-18.8Q167.27-17.5 167.85-16.69 168.44-15.87 169.4-15.31 170.37-14.75 171.6-14.37 172.83-13.99 174.12-13.59 175.4-13.18 176.63-12.67 177.86-12.16 178.83-11.35 179.79-10.55 180.38-9.34 180.96-8.13 180.96-6.35Z" opacity="1" transform="matrix(1,0,0,1,0,0)" fill="#ffffff" class="wordmark-text-0" data-fill-palette-color="primary"></path></svg></g><g><svg xmlns="http://www.w3.org/2000/svg" xmlns:xlink="http://www.w3.org/1999/xlink" version="1.1" x="301.5294921875" y="0" viewBox="0.5 0.5 71 71" enable-background="new 0 0 72 72" xml:space="preserve" height="57.435839843749996" width="57.435839843749996" class="icon-dxe-0" data-fill-palette-color="accent" id="dxe-0"><g fill="#2563eb" data-fill-palette-color="accent"><g fill="#2563eb" data-fill-palette-color="accent"><g fill="#2563eb" data-fill-palette-color="accent"><path d="M48.4 38.1C47.7 38.1 47 37.8 46.5 37.2 45.6 36.2 45.8 34.6 46.7 33.7L49.8 30.6C50.1 30.3 50.1 29.9 49.8 29.6L46.7 26.5C45.8 25.6 45.6 24.1 46.4 23.1 47.4 21.9 49.1 21.9 50.1 22.9L55.6 28.4C56.1 28.9 56.3 29.5 56.3 30.2S56 31.5 55.6 32L50.1 37.5C49.6 37.9 49 38.1 48.4 38.1" fill="#2563eb" data-fill-palette-color="accent"></path></g><g fill="#2563eb" data-fill-palette-color="accent"><path d="M23.6 38.1C23 38.1 22.3 37.9 21.8 37.4L16.4 32C15.9 31.5 15.7 30.9 15.7 30.2S16 28.9 16.4 28.4L21.8 23C22.7 22.1 24.2 21.9 25.2 22.7 26.4 23.7 26.4 25.4 25.4 26.4L22.2 29.6C21.9 29.9 21.9 30.3 22.2 30.6L25.3 33.7C26.2 34.6 26.4 36.2 25.5 37.2 25 37.8 24.3 38.1 23.6 38.1" fill="#2563eb" data-fill-palette-color="accent"></path></g></g><g fill="#2563eb" data-fill-palette-color="accent"><path d="M32.7 41.9C32.4 41.9 32.1 41.9 31.9 41.8 30.6 41.3 29.9 39.9 30.4 38.6L37 20.2C37.5 18.9 38.9 18.2 40.2 18.7S42.2 20.6 41.7 21.9L35.1 40.3C34.7 41.2 33.7 41.9 32.7 41.9" fill="#2563eb" data-fill-palette-color="accent"></path></g><g fill="#2563eb" data-fill-palette-color="accent"><path d="M69.8 0.5H2.2C1.3 0.5 0.5 1.3 0.5 2.2V69.8C0.5 70.7 1.3 71.5 2.2 71.5H69.8C70.7 71.5 71.5 70.7 71.5 69.8V2.2C71.5 1.3 70.7 0.5 69.8 0.5M25 4.5C26.2 4.5 27.1 5.4 27.1 6.6S26.2 8.7 25 8.7 22.9 7.8 22.9 6.6 23.8 4.5 25 4.5M16.1 4.5C17.3 4.5 18.2 5.4 18.2 6.6S17.3 8.7 16.1 8.7C15 8.7 14 7.8 14 6.6S15 4.5 16.1 4.5M7.3 4.5C8.5 4.5 9.4 5.4 9.4 6.6S8.5 8.7 7.3 8.7 5.2 7.8 5.2 6.6 6.1 4.5 7.3 4.5M5.5 64.8V16.5C5.5 15.6 6.3 14.8 7.2 14.8H64.8C65.7 14.8 66.5 15.6 66.5 16.5V46C66.4 46 66.4 45.9 66.3 45.9 65.9 45.8 65.7 45.4 65.7 45.1V41.6C65.7 41.1 65.3 40.7 64.8 40.7H59C58.5 40.7 58.1 41.1 58.1 41.6V45.1C58.1 45.5 57.8 45.8 57.5 45.9 56.7 46.1 56 46.5 55.3 46.8 55 47 54.5 46.9 54.3 46.7L52 44.5C51.4 43.9 50.9 43.9 50.5 44.3L46.4 48.4C46 48.8 46 49.3 46.4 49.7L48.8 52.1C49.1 52.4 49.1 52.8 49 53.1 48.6 53.8 48.3 54.6 48.1 55.3 48 55.7 47.6 56 47.2 56H43.7C43.2 56 42.8 56.4 42.8 56.9V62.7C42.8 63.2 43.2 63.6 43.7 63.6H47.2C47.6 63.6 47.9 63.9 48 64.2 48.1 64.6 48.3 65.1 48.5 65.5 48.7 66 48.3 66.6 47.8 66.6H7.2C6.3 66.5 5.5 65.7 5.5 64.8M64.8 66.5H56.4C56.1 66.5 55.8 66.4 55.6 66.2 53.7 64.3 52.6 61.5 53 58.5 53.5 54.6 56.7 51.4 60.6 50.8 62.8 50.5 64.9 50.9 66.6 52V64.8C66.5 65.7 65.7 66.5 64.8 66.5" fill="#2563eb" data-fill-palette-color="accent"></path></g></g></svg></g></svg></g></svg></g></svg></g></svg></g></svg></g><defs></defs></svg><rect width="358.96533203125" height="57.435839843749996" fill="none" stroke="none" visibility="hidden"></rect></g></svg></g></svg>